G75*
%MOIN*%
%OFA0B0*%
%FSLAX24Y24*%
%IPPOS*%
%LPD*%
%AMOC8*
5,1,8,0,0,1.08239X$1,22.5*
%
%ADD10C,0.0650*%
%ADD11C,0.0600*%
%ADD12C,0.0100*%
%ADD13C,0.0376*%
D10*
X001725Y004725D03*
X001725Y006725D03*
D11*
X007425Y006725D02*
X008025Y006725D01*
X008025Y005725D02*
X007425Y005725D01*
X007425Y004725D02*
X008025Y004725D01*
X008025Y003725D02*
X007425Y003725D01*
X007425Y007725D02*
X008025Y007725D01*
D12*
X000420Y008449D02*
X000420Y003000D01*
X000604Y003185D01*
X001020Y003425D01*
X001485Y003550D01*
X001965Y003550D01*
X002429Y003425D01*
X002845Y003185D01*
X003185Y002845D01*
X003425Y002429D01*
X003550Y001965D01*
X003550Y001485D01*
X003425Y001020D01*
X003185Y000604D01*
X003000Y000420D01*
X007650Y000420D01*
X007820Y000431D01*
X008149Y000519D01*
X008445Y000689D01*
X008685Y000930D01*
X008856Y001225D01*
X008944Y001554D01*
X008955Y001725D01*
X008955Y009725D01*
X008944Y009895D01*
X008856Y010224D01*
X008685Y010519D01*
X008445Y010760D01*
X008149Y010931D01*
X007820Y011019D01*
X007650Y011030D01*
X003000Y011030D01*
X003185Y010845D01*
X003425Y010429D01*
X003550Y009965D01*
X003550Y009485D01*
X003425Y009020D01*
X003185Y008604D01*
X002845Y008265D01*
X002429Y008024D01*
X001965Y007900D01*
X001485Y007900D01*
X001020Y008024D01*
X000604Y008265D01*
X000420Y008449D01*
X000420Y008400D02*
X000469Y008400D01*
X000420Y008302D02*
X000567Y008302D01*
X000710Y008203D02*
X000420Y008203D01*
X000420Y008105D02*
X000881Y008105D01*
X001088Y008006D02*
X000420Y008006D01*
X000420Y007908D02*
X001455Y007908D01*
X001994Y007908D02*
X006905Y007908D01*
X006875Y007834D02*
X006875Y007615D01*
X006959Y007413D01*
X007113Y007259D01*
X007195Y007225D01*
X007113Y007191D01*
X006959Y007036D01*
X006875Y006834D01*
X006875Y006615D01*
X006959Y006413D01*
X007113Y006259D01*
X007315Y006175D01*
X008134Y006175D01*
X008336Y006259D01*
X008491Y006413D01*
X008575Y006615D01*
X008575Y006834D01*
X008491Y007036D01*
X008336Y007191D01*
X008255Y007225D01*
X008336Y007259D01*
X008491Y007413D01*
X008575Y007615D01*
X008575Y007834D01*
X008491Y008036D01*
X008336Y008191D01*
X008134Y008275D01*
X007315Y008275D01*
X007113Y008191D01*
X006959Y008036D01*
X006875Y007834D01*
X006875Y007809D02*
X000420Y007809D01*
X000420Y007711D02*
X006875Y007711D01*
X006876Y007612D02*
X000420Y007612D01*
X000420Y007514D02*
X006917Y007514D01*
X006958Y007415D02*
X000420Y007415D01*
X000420Y007317D02*
X007055Y007317D01*
X007179Y007218D02*
X002035Y007218D01*
X002050Y007212D02*
X001839Y007300D01*
X001610Y007300D01*
X001399Y007212D01*
X001238Y007050D01*
X001150Y006839D01*
X001150Y006610D01*
X001238Y006399D01*
X001399Y006238D01*
X001610Y006150D01*
X001839Y006150D01*
X002050Y006238D01*
X002212Y006399D01*
X002300Y006610D01*
X002300Y006839D01*
X002212Y007050D01*
X002050Y007212D01*
X002143Y007120D02*
X007042Y007120D01*
X006952Y007021D02*
X002224Y007021D01*
X002265Y006923D02*
X006912Y006923D01*
X006875Y006824D02*
X002300Y006824D01*
X002300Y006726D02*
X006875Y006726D01*
X006875Y006627D02*
X002300Y006627D01*
X002266Y006529D02*
X006911Y006529D01*
X006951Y006430D02*
X002225Y006430D01*
X002145Y006332D02*
X007040Y006332D01*
X007174Y006233D02*
X002040Y006233D01*
X001409Y006233D02*
X000420Y006233D01*
X000420Y006135D02*
X007238Y006135D01*
X007252Y006142D02*
X007189Y006110D01*
X007132Y006068D01*
X007082Y006018D01*
X007040Y005961D01*
X007008Y005898D01*
X006986Y005830D01*
X006977Y005775D01*
X007675Y005775D01*
X007675Y006175D01*
X007389Y006175D01*
X007319Y006164D01*
X007252Y006142D01*
X007100Y006036D02*
X000420Y006036D01*
X000420Y005938D02*
X007028Y005938D01*
X006989Y005839D02*
X000420Y005839D01*
X000420Y005741D02*
X007675Y005741D01*
X007675Y005775D02*
X007675Y005675D01*
X007775Y005675D01*
X007775Y005775D01*
X007675Y005775D01*
X007675Y005839D02*
X007775Y005839D01*
X007775Y005775D02*
X007775Y006175D01*
X008060Y006175D01*
X008130Y006164D01*
X008198Y006142D01*
X008261Y006110D01*
X008318Y006068D01*
X008368Y006018D01*
X008410Y005961D01*
X008442Y005898D01*
X008464Y005830D01*
X008472Y005775D01*
X007775Y005775D01*
X007775Y005741D02*
X008955Y005741D01*
X008955Y005839D02*
X008461Y005839D01*
X008421Y005938D02*
X008955Y005938D01*
X008955Y006036D02*
X008350Y006036D01*
X008211Y006135D02*
X008955Y006135D01*
X008955Y006233D02*
X008275Y006233D01*
X008410Y006332D02*
X008955Y006332D01*
X008955Y006430D02*
X008498Y006430D01*
X008539Y006529D02*
X008955Y006529D01*
X008955Y006627D02*
X008575Y006627D01*
X008575Y006726D02*
X008955Y006726D01*
X008955Y006824D02*
X008575Y006824D01*
X008538Y006923D02*
X008955Y006923D01*
X008955Y007021D02*
X008497Y007021D01*
X008408Y007120D02*
X008955Y007120D01*
X008955Y007218D02*
X008271Y007218D01*
X008395Y007317D02*
X008955Y007317D01*
X008955Y007415D02*
X008492Y007415D01*
X008533Y007514D02*
X008955Y007514D01*
X008955Y007612D02*
X008574Y007612D01*
X008575Y007711D02*
X008955Y007711D01*
X008955Y007809D02*
X008575Y007809D01*
X008544Y007908D02*
X008955Y007908D01*
X008955Y008006D02*
X008504Y008006D01*
X008423Y008105D02*
X008955Y008105D01*
X008955Y008203D02*
X008307Y008203D01*
X008955Y008302D02*
X002882Y008302D01*
X002981Y008400D02*
X008955Y008400D01*
X008955Y008499D02*
X003079Y008499D01*
X003178Y008597D02*
X008955Y008597D01*
X008955Y008696D02*
X003238Y008696D01*
X003295Y008794D02*
X008955Y008794D01*
X008955Y008893D02*
X003352Y008893D01*
X003408Y008991D02*
X008955Y008991D01*
X008955Y009090D02*
X003444Y009090D01*
X003470Y009188D02*
X008955Y009188D01*
X008955Y009287D02*
X003497Y009287D01*
X003523Y009385D02*
X008955Y009385D01*
X008955Y009484D02*
X003549Y009484D01*
X003550Y009582D02*
X008955Y009582D01*
X008955Y009681D02*
X003550Y009681D01*
X003550Y009779D02*
X008952Y009779D01*
X008945Y009878D02*
X003550Y009878D01*
X003547Y009976D02*
X008922Y009976D01*
X008896Y010075D02*
X003520Y010075D01*
X003494Y010173D02*
X008869Y010173D01*
X008828Y010272D02*
X003467Y010272D01*
X003441Y010370D02*
X008771Y010370D01*
X008715Y010469D02*
X003402Y010469D01*
X003345Y010567D02*
X008637Y010567D01*
X008539Y010666D02*
X003289Y010666D01*
X003232Y010764D02*
X008437Y010764D01*
X008267Y010863D02*
X003167Y010863D01*
X003069Y010961D02*
X008035Y010961D01*
X007143Y008203D02*
X002739Y008203D01*
X002569Y008105D02*
X007027Y008105D01*
X006946Y008006D02*
X002362Y008006D01*
X001414Y007218D02*
X000420Y007218D01*
X000420Y007120D02*
X001307Y007120D01*
X001225Y007021D02*
X000420Y007021D01*
X000420Y006923D02*
X001185Y006923D01*
X001150Y006824D02*
X000420Y006824D01*
X000420Y006726D02*
X001150Y006726D01*
X001150Y006627D02*
X000420Y006627D01*
X000420Y006529D02*
X001184Y006529D01*
X001225Y006430D02*
X000420Y006430D01*
X000420Y006332D02*
X001305Y006332D01*
X001610Y005300D02*
X001399Y005212D01*
X001238Y005050D01*
X001150Y004839D01*
X001150Y004610D01*
X001238Y004399D01*
X001399Y004238D01*
X001610Y004150D01*
X001839Y004150D01*
X002050Y004238D01*
X002212Y004399D01*
X002300Y004610D01*
X002300Y004839D01*
X002212Y005050D01*
X002050Y005212D01*
X001839Y005300D01*
X001610Y005300D01*
X001487Y005248D02*
X000420Y005248D01*
X000420Y005150D02*
X001337Y005150D01*
X001238Y005051D02*
X000420Y005051D01*
X000420Y004953D02*
X001197Y004953D01*
X001156Y004854D02*
X000420Y004854D01*
X000420Y004756D02*
X001150Y004756D01*
X001150Y004657D02*
X000420Y004657D01*
X000420Y004559D02*
X001171Y004559D01*
X001212Y004460D02*
X000420Y004460D01*
X000420Y004362D02*
X001275Y004362D01*
X001373Y004263D02*
X000420Y004263D01*
X000420Y004165D02*
X001575Y004165D01*
X001875Y004165D02*
X007087Y004165D01*
X007113Y004191D02*
X006959Y004036D01*
X006875Y003834D01*
X006875Y003615D01*
X006959Y003413D01*
X007113Y003259D01*
X007315Y003175D01*
X008134Y003175D01*
X008336Y003259D01*
X008491Y003413D01*
X008575Y003615D01*
X008575Y003834D01*
X008491Y004036D01*
X008336Y004191D01*
X008255Y004225D01*
X008336Y004259D01*
X008491Y004413D01*
X008575Y004615D01*
X008575Y004834D01*
X008491Y005036D01*
X008336Y005191D01*
X008134Y005275D01*
X007315Y005275D01*
X007113Y005191D01*
X006959Y005036D01*
X006875Y004834D01*
X006875Y004615D01*
X006959Y004413D01*
X007113Y004259D01*
X007195Y004225D01*
X007113Y004191D01*
X007108Y004263D02*
X002076Y004263D01*
X002175Y004362D02*
X007010Y004362D01*
X006939Y004460D02*
X002237Y004460D01*
X002278Y004559D02*
X006898Y004559D01*
X006875Y004657D02*
X002300Y004657D01*
X002300Y004756D02*
X006875Y004756D01*
X006883Y004854D02*
X002293Y004854D01*
X002253Y004953D02*
X006924Y004953D01*
X006973Y005051D02*
X002211Y005051D01*
X002113Y005150D02*
X007072Y005150D01*
X007251Y005248D02*
X001963Y005248D01*
X002242Y003475D02*
X006933Y003475D01*
X006892Y003574D02*
X000420Y003574D01*
X000420Y003672D02*
X006875Y003672D01*
X006875Y003771D02*
X000420Y003771D01*
X000420Y003869D02*
X006889Y003869D01*
X006930Y003968D02*
X000420Y003968D01*
X000420Y004066D02*
X006988Y004066D01*
X006995Y003377D02*
X002513Y003377D01*
X002684Y003278D02*
X007093Y003278D01*
X007303Y003180D02*
X002850Y003180D01*
X002949Y003081D02*
X008955Y003081D01*
X008955Y002983D02*
X003047Y002983D01*
X003146Y002884D02*
X008955Y002884D01*
X008955Y002786D02*
X003219Y002786D01*
X003276Y002687D02*
X008955Y002687D01*
X008955Y002589D02*
X003333Y002589D01*
X003390Y002490D02*
X008955Y002490D01*
X008955Y002392D02*
X003435Y002392D01*
X003462Y002293D02*
X008955Y002293D01*
X008955Y002195D02*
X003488Y002195D01*
X003514Y002096D02*
X008955Y002096D01*
X008955Y001998D02*
X003541Y001998D01*
X003550Y001899D02*
X008955Y001899D01*
X008955Y001801D02*
X003550Y001801D01*
X003550Y001702D02*
X008954Y001702D01*
X008947Y001604D02*
X003550Y001604D01*
X003550Y001505D02*
X008931Y001505D01*
X008904Y001407D02*
X003529Y001407D01*
X003502Y001308D02*
X008878Y001308D01*
X008847Y001210D02*
X003476Y001210D01*
X003450Y001111D02*
X008790Y001111D01*
X008733Y001013D02*
X003421Y001013D01*
X003364Y000914D02*
X008669Y000914D01*
X008571Y000816D02*
X003307Y000816D01*
X003250Y000717D02*
X008472Y000717D01*
X008322Y000619D02*
X003193Y000619D01*
X003101Y000520D02*
X008152Y000520D01*
X007682Y000422D02*
X003002Y000422D01*
X000766Y003278D02*
X000420Y003278D01*
X000420Y003180D02*
X000599Y003180D01*
X000501Y003081D02*
X000420Y003081D01*
X000420Y003377D02*
X000937Y003377D01*
X001207Y003475D02*
X000420Y003475D01*
X000420Y005347D02*
X007179Y005347D01*
X007189Y005340D02*
X007252Y005308D01*
X007319Y005286D01*
X007389Y005275D01*
X007675Y005275D01*
X007675Y005675D01*
X006977Y005675D01*
X006986Y005619D01*
X007008Y005552D01*
X007040Y005489D01*
X007082Y005432D01*
X007132Y005382D01*
X007189Y005340D01*
X007072Y005445D02*
X000420Y005445D01*
X000420Y005544D02*
X007012Y005544D01*
X006982Y005642D02*
X000420Y005642D01*
X007675Y005642D02*
X007775Y005642D01*
X007775Y005675D02*
X007775Y005275D01*
X008060Y005275D01*
X008130Y005286D01*
X008198Y005308D01*
X008261Y005340D01*
X008318Y005382D01*
X008368Y005432D01*
X008410Y005489D01*
X008442Y005552D01*
X008464Y005619D01*
X008472Y005675D01*
X007775Y005675D01*
X007775Y005544D02*
X007675Y005544D01*
X007675Y005445D02*
X007775Y005445D01*
X007775Y005347D02*
X007675Y005347D01*
X007675Y005938D02*
X007775Y005938D01*
X007775Y006036D02*
X007675Y006036D01*
X007675Y006135D02*
X007775Y006135D01*
X008378Y005445D02*
X008955Y005445D01*
X008955Y005347D02*
X008270Y005347D01*
X008198Y005248D02*
X008955Y005248D01*
X008955Y005150D02*
X008378Y005150D01*
X008476Y005051D02*
X008955Y005051D01*
X008955Y004953D02*
X008526Y004953D01*
X008566Y004854D02*
X008955Y004854D01*
X008955Y004756D02*
X008575Y004756D01*
X008575Y004657D02*
X008955Y004657D01*
X008955Y004559D02*
X008551Y004559D01*
X008511Y004460D02*
X008955Y004460D01*
X008955Y004362D02*
X008440Y004362D01*
X008341Y004263D02*
X008955Y004263D01*
X008955Y004165D02*
X008363Y004165D01*
X008461Y004066D02*
X008955Y004066D01*
X008955Y003968D02*
X008519Y003968D01*
X008560Y003869D02*
X008955Y003869D01*
X008955Y003771D02*
X008575Y003771D01*
X008575Y003672D02*
X008955Y003672D01*
X008955Y003574D02*
X008558Y003574D01*
X008517Y003475D02*
X008955Y003475D01*
X008955Y003377D02*
X008455Y003377D01*
X008356Y003278D02*
X008955Y003278D01*
X008955Y003180D02*
X008146Y003180D01*
X008438Y005544D02*
X008955Y005544D01*
X008955Y005642D02*
X008467Y005642D01*
D13*
X006225Y002451D03*
X006225Y009025D03*
X004601Y009375D03*
M02*
