G75*
%MOIN*%
%OFA0B0*%
%FSLAX24Y24*%
%IPPOS*%
%LPD*%
%AMOC8*
5,1,8,0,0,1.08239X$1,22.5*
%
%ADD10C,0.0000*%
%ADD11C,0.0039*%
%ADD12C,0.0090*%
%ADD13C,0.0079*%
%ADD14C,0.0050*%
%ADD15C,0.0060*%
D10*
X001194Y001725D02*
X001196Y001771D01*
X001202Y001816D01*
X001212Y001861D01*
X001225Y001904D01*
X001242Y001947D01*
X001263Y001987D01*
X001287Y002026D01*
X001315Y002062D01*
X001346Y002096D01*
X001379Y002128D01*
X001415Y002156D01*
X001453Y002181D01*
X001493Y002203D01*
X001535Y002221D01*
X001578Y002235D01*
X001623Y002246D01*
X001668Y002253D01*
X001714Y002256D01*
X001759Y002255D01*
X001805Y002250D01*
X001850Y002241D01*
X001893Y002229D01*
X001936Y002212D01*
X001977Y002192D01*
X002016Y002169D01*
X002054Y002142D01*
X002088Y002112D01*
X002120Y002080D01*
X002149Y002044D01*
X002175Y002007D01*
X002198Y001967D01*
X002217Y001926D01*
X002232Y001883D01*
X002244Y001838D01*
X002252Y001793D01*
X002256Y001748D01*
X002256Y001702D01*
X002252Y001657D01*
X002244Y001612D01*
X002232Y001567D01*
X002217Y001524D01*
X002198Y001483D01*
X002175Y001443D01*
X002149Y001406D01*
X002120Y001370D01*
X002088Y001338D01*
X002054Y001308D01*
X002016Y001281D01*
X001977Y001258D01*
X001936Y001238D01*
X001893Y001221D01*
X001850Y001209D01*
X001805Y001200D01*
X001759Y001195D01*
X001714Y001194D01*
X001668Y001197D01*
X001623Y001204D01*
X001578Y001215D01*
X001535Y001229D01*
X001493Y001247D01*
X001453Y001269D01*
X001415Y001294D01*
X001379Y001322D01*
X001346Y001354D01*
X001315Y001388D01*
X001287Y001424D01*
X001263Y001463D01*
X001242Y001503D01*
X001225Y001546D01*
X001212Y001589D01*
X001202Y001634D01*
X001196Y001679D01*
X001194Y001725D01*
X001194Y009725D02*
X001196Y009771D01*
X001202Y009816D01*
X001212Y009861D01*
X001225Y009904D01*
X001242Y009947D01*
X001263Y009987D01*
X001287Y010026D01*
X001315Y010062D01*
X001346Y010096D01*
X001379Y010128D01*
X001415Y010156D01*
X001453Y010181D01*
X001493Y010203D01*
X001535Y010221D01*
X001578Y010235D01*
X001623Y010246D01*
X001668Y010253D01*
X001714Y010256D01*
X001759Y010255D01*
X001805Y010250D01*
X001850Y010241D01*
X001893Y010229D01*
X001936Y010212D01*
X001977Y010192D01*
X002016Y010169D01*
X002054Y010142D01*
X002088Y010112D01*
X002120Y010080D01*
X002149Y010044D01*
X002175Y010007D01*
X002198Y009967D01*
X002217Y009926D01*
X002232Y009883D01*
X002244Y009838D01*
X002252Y009793D01*
X002256Y009748D01*
X002256Y009702D01*
X002252Y009657D01*
X002244Y009612D01*
X002232Y009567D01*
X002217Y009524D01*
X002198Y009483D01*
X002175Y009443D01*
X002149Y009406D01*
X002120Y009370D01*
X002088Y009338D01*
X002054Y009308D01*
X002016Y009281D01*
X001977Y009258D01*
X001936Y009238D01*
X001893Y009221D01*
X001850Y009209D01*
X001805Y009200D01*
X001759Y009195D01*
X001714Y009194D01*
X001668Y009197D01*
X001623Y009204D01*
X001578Y009215D01*
X001535Y009229D01*
X001493Y009247D01*
X001453Y009269D01*
X001415Y009294D01*
X001379Y009322D01*
X001346Y009354D01*
X001315Y009388D01*
X001287Y009424D01*
X001263Y009463D01*
X001242Y009503D01*
X001225Y009546D01*
X001212Y009589D01*
X001202Y009634D01*
X001196Y009679D01*
X001194Y009725D01*
D11*
X000150Y009725D02*
X000150Y001725D01*
X000152Y001648D01*
X000158Y001571D01*
X000167Y001494D01*
X000180Y001418D01*
X000197Y001342D01*
X000218Y001268D01*
X000242Y001194D01*
X000270Y001122D01*
X000301Y001052D01*
X000336Y000983D01*
X000374Y000915D01*
X000415Y000850D01*
X000460Y000787D01*
X000508Y000726D01*
X000558Y000667D01*
X000611Y000611D01*
X000667Y000558D01*
X000726Y000508D01*
X000787Y000460D01*
X000850Y000415D01*
X000915Y000374D01*
X000983Y000336D01*
X001052Y000301D01*
X001122Y000270D01*
X001194Y000242D01*
X001268Y000218D01*
X001342Y000197D01*
X001418Y000180D01*
X001494Y000167D01*
X001571Y000158D01*
X001648Y000152D01*
X001725Y000150D01*
X007650Y000150D01*
X007727Y000152D01*
X007804Y000158D01*
X007881Y000167D01*
X007957Y000180D01*
X008033Y000197D01*
X008107Y000218D01*
X008181Y000242D01*
X008253Y000270D01*
X008323Y000301D01*
X008392Y000336D01*
X008460Y000374D01*
X008525Y000415D01*
X008588Y000460D01*
X008649Y000508D01*
X008708Y000558D01*
X008764Y000611D01*
X008817Y000667D01*
X008867Y000726D01*
X008915Y000787D01*
X008960Y000850D01*
X009001Y000915D01*
X009039Y000983D01*
X009074Y001052D01*
X009105Y001122D01*
X009133Y001194D01*
X009157Y001268D01*
X009178Y001342D01*
X009195Y001418D01*
X009208Y001494D01*
X009217Y001571D01*
X009223Y001648D01*
X009225Y001725D01*
X009225Y009725D01*
X009223Y009802D01*
X009217Y009879D01*
X009208Y009956D01*
X009195Y010032D01*
X009178Y010108D01*
X009157Y010182D01*
X009133Y010256D01*
X009105Y010328D01*
X009074Y010398D01*
X009039Y010467D01*
X009001Y010535D01*
X008960Y010600D01*
X008915Y010663D01*
X008867Y010724D01*
X008817Y010783D01*
X008764Y010839D01*
X008708Y010892D01*
X008649Y010942D01*
X008588Y010990D01*
X008525Y011035D01*
X008460Y011076D01*
X008392Y011114D01*
X008323Y011149D01*
X008253Y011180D01*
X008181Y011208D01*
X008107Y011232D01*
X008033Y011253D01*
X007957Y011270D01*
X007881Y011283D01*
X007804Y011292D01*
X007727Y011298D01*
X007650Y011300D01*
X001725Y011300D01*
X001648Y011298D01*
X001571Y011292D01*
X001494Y011283D01*
X001418Y011270D01*
X001342Y011253D01*
X001268Y011232D01*
X001194Y011208D01*
X001122Y011180D01*
X001052Y011149D01*
X000983Y011114D01*
X000915Y011076D01*
X000850Y011035D01*
X000787Y010990D01*
X000726Y010942D01*
X000667Y010892D01*
X000611Y010839D01*
X000558Y010783D01*
X000508Y010724D01*
X000460Y010663D01*
X000415Y010600D01*
X000374Y010535D01*
X000336Y010467D01*
X000301Y010398D01*
X000270Y010328D01*
X000242Y010256D01*
X000218Y010182D01*
X000197Y010108D01*
X000180Y010032D01*
X000167Y009956D01*
X000158Y009879D01*
X000152Y009802D01*
X000150Y009725D01*
D12*
X000725Y008204D02*
X000725Y007870D01*
X000558Y008037D02*
X000892Y008037D01*
X003226Y008025D02*
X003226Y008526D01*
X003477Y008526D01*
X003560Y008442D01*
X003560Y008275D01*
X003477Y008192D01*
X003226Y008192D01*
X003393Y008192D02*
X003560Y008025D01*
X003770Y008025D02*
X004104Y008359D01*
X004104Y008442D01*
X004020Y008526D01*
X003853Y008526D01*
X003770Y008442D01*
X003770Y008025D02*
X004104Y008025D01*
X004175Y007254D02*
X004175Y006920D01*
X003841Y007254D01*
X003758Y007254D01*
X003674Y007170D01*
X003674Y007003D01*
X003758Y006920D01*
X003758Y006710D02*
X003674Y006627D01*
X003674Y006460D01*
X003758Y006376D01*
X004092Y006376D01*
X004175Y006460D01*
X004175Y006627D01*
X004092Y006710D01*
X004175Y006054D02*
X004175Y005720D01*
X004092Y005510D02*
X003674Y005510D01*
X003841Y005720D02*
X003674Y005887D01*
X004175Y005887D01*
X004092Y005510D02*
X004175Y005427D01*
X004175Y005260D01*
X004092Y005176D01*
X003674Y005176D01*
X003758Y004854D02*
X003841Y004854D01*
X003925Y004770D01*
X004008Y004854D01*
X004092Y004854D01*
X004175Y004770D01*
X004175Y004603D01*
X004092Y004520D01*
X004175Y004310D02*
X004008Y004143D01*
X004008Y004227D02*
X004008Y003976D01*
X004175Y003976D02*
X003674Y003976D01*
X003674Y004227D01*
X003758Y004310D01*
X003925Y004310D01*
X004008Y004227D01*
X003758Y004520D02*
X003674Y004603D01*
X003674Y004770D01*
X003758Y004854D01*
X003925Y004770D02*
X003925Y004687D01*
X004475Y002004D02*
X004475Y001670D01*
X004475Y001837D02*
X003974Y001837D01*
X004141Y001670D01*
X004058Y001460D02*
X003974Y001377D01*
X003974Y001126D01*
X004475Y001126D01*
X004308Y001126D02*
X004308Y001377D01*
X004225Y001460D01*
X004058Y001460D01*
X004308Y001293D02*
X004475Y001460D01*
X004974Y001327D02*
X004974Y001160D01*
X005058Y001076D01*
X005392Y001076D01*
X005475Y001160D01*
X005475Y001327D01*
X005392Y001410D01*
X005392Y001620D02*
X005475Y001703D01*
X005475Y001870D01*
X005392Y001954D01*
X005308Y001954D01*
X005225Y001870D01*
X005225Y001787D01*
X005225Y001870D02*
X005141Y001954D01*
X005058Y001954D01*
X004974Y001870D01*
X004974Y001703D01*
X005058Y001620D01*
X005058Y001410D02*
X004974Y001327D01*
X006674Y002260D02*
X006758Y002176D01*
X007092Y002176D01*
X007175Y002260D01*
X007175Y002427D01*
X007092Y002510D01*
X007092Y002720D02*
X007175Y002803D01*
X007175Y002970D01*
X007092Y003054D01*
X006925Y003054D01*
X006841Y002970D01*
X006841Y002887D01*
X006925Y002720D01*
X006674Y002720D01*
X006674Y003054D01*
X006758Y002510D02*
X006674Y002427D01*
X006674Y002260D01*
X007444Y002300D02*
X007862Y002300D01*
X007945Y002217D01*
X007945Y002133D01*
X007862Y002050D01*
X007444Y002217D02*
X007444Y002384D01*
X007611Y002594D02*
X007444Y002761D01*
X007945Y002761D01*
X007945Y002594D02*
X007945Y002928D01*
X008474Y003820D02*
X008474Y004070D01*
X008558Y004154D01*
X008725Y004154D01*
X008808Y004070D01*
X008808Y003820D01*
X008808Y003987D02*
X008975Y004154D01*
X008892Y004364D02*
X008725Y004364D01*
X008641Y004447D01*
X008641Y004614D01*
X008725Y004698D01*
X008808Y004698D01*
X008808Y004364D01*
X008892Y004364D02*
X008975Y004447D01*
X008975Y004614D01*
X008725Y004907D02*
X008725Y005074D01*
X008558Y004991D02*
X008474Y005074D01*
X008558Y004991D02*
X008975Y004991D01*
X008892Y005498D02*
X008558Y005498D01*
X008474Y005581D01*
X008474Y005748D01*
X008558Y005832D01*
X008725Y005832D02*
X008725Y005665D01*
X008725Y005832D02*
X008892Y005832D01*
X008975Y005748D01*
X008975Y005581D01*
X008892Y005498D01*
X008892Y006270D02*
X008558Y006270D01*
X008474Y006353D01*
X008474Y006520D01*
X008558Y006604D01*
X008892Y006270D01*
X008975Y006353D01*
X008975Y006520D01*
X008892Y006604D01*
X008558Y006604D01*
X008641Y006814D02*
X008892Y006814D01*
X008975Y006897D01*
X008975Y007148D01*
X008641Y007148D01*
X008641Y007357D02*
X008641Y007524D01*
X008558Y007441D02*
X008892Y007441D01*
X008975Y007524D01*
X008725Y008020D02*
X008725Y008354D01*
X008558Y008187D02*
X008892Y008187D01*
X007975Y008520D02*
X007975Y008854D01*
X007975Y008687D02*
X007474Y008687D01*
X007641Y008520D01*
X007075Y008910D02*
X007075Y009077D01*
X006992Y009160D01*
X006825Y009370D02*
X006825Y009704D01*
X007075Y009620D02*
X006574Y009620D01*
X006825Y009370D01*
X006658Y009160D02*
X006574Y009077D01*
X006574Y008910D01*
X006658Y008826D01*
X006992Y008826D01*
X007075Y008910D01*
X007045Y010275D02*
X006878Y010275D01*
X006795Y010358D01*
X006878Y010525D02*
X007129Y010525D01*
X007129Y010358D02*
X007129Y010692D01*
X007045Y010776D01*
X006878Y010776D01*
X006795Y010692D01*
X006795Y010609D01*
X006878Y010525D01*
X007045Y010275D02*
X007129Y010358D01*
X007339Y010358D02*
X007422Y010275D01*
X007589Y010275D01*
X007673Y010358D01*
X007673Y010525D01*
X007589Y010609D01*
X007506Y010609D01*
X007339Y010525D01*
X007339Y010776D01*
X007673Y010776D01*
X006585Y010525D02*
X006251Y010525D01*
X006502Y010776D01*
X006502Y010275D01*
X006041Y010358D02*
X005958Y010275D01*
X005791Y010275D01*
X005707Y010358D01*
X005707Y010442D01*
X005791Y010525D01*
X005958Y010525D01*
X006041Y010442D01*
X006041Y010358D01*
X005958Y010525D02*
X006041Y010609D01*
X006041Y010692D01*
X005958Y010776D01*
X005791Y010776D01*
X005707Y010692D01*
X005707Y010609D01*
X005791Y010525D01*
X005498Y010358D02*
X005498Y010692D01*
X005414Y010776D01*
X005164Y010776D01*
X005164Y010275D01*
X005414Y010275D01*
X005498Y010358D01*
X004954Y010275D02*
X004954Y010609D01*
X004787Y010776D01*
X004620Y010609D01*
X004620Y010275D01*
X004620Y010525D02*
X004954Y010525D01*
X005010Y009726D02*
X004926Y009642D01*
X004926Y009308D01*
X005010Y009225D01*
X005177Y009225D01*
X005260Y009308D01*
X005470Y009225D02*
X005804Y009225D01*
X005637Y009225D02*
X005637Y009726D01*
X005470Y009559D01*
X005260Y009642D02*
X005177Y009726D01*
X005010Y009726D01*
X008474Y003820D02*
X008975Y003820D01*
X008725Y003310D02*
X008725Y002976D01*
X000725Y003226D02*
X000725Y003560D01*
D13*
X000937Y004725D02*
X000150Y004725D01*
X000150Y006725D02*
X000937Y006725D01*
X005266Y006315D02*
X005266Y004583D01*
X006683Y005134D02*
X006683Y006315D01*
D14*
X006638Y007857D02*
X006638Y008093D01*
X005811Y008093D02*
X005811Y007857D01*
X005093Y007988D02*
X004857Y007988D01*
X004857Y008261D02*
X005093Y008261D01*
X005093Y009088D02*
X004857Y009088D01*
X004857Y007161D02*
X005093Y007161D01*
X005138Y006343D02*
X005138Y006107D01*
X004311Y006107D02*
X004311Y006343D01*
X004311Y004593D02*
X004311Y004357D01*
X005138Y004357D02*
X005138Y004593D01*
X005811Y003593D02*
X005811Y003357D01*
X005638Y002943D02*
X005638Y002707D01*
X004811Y002707D02*
X004811Y002943D01*
X004638Y002943D02*
X004638Y002707D01*
X003811Y002707D02*
X003811Y002943D01*
X006638Y003357D02*
X006638Y003593D01*
D15*
X007225Y003475D02*
X007225Y003975D01*
X007475Y004225D01*
X007225Y004475D01*
X007225Y004975D01*
X007475Y005225D01*
X007225Y005475D01*
X007225Y005975D01*
X007475Y006225D01*
X007225Y006475D01*
X007225Y006975D01*
X007475Y007225D01*
X007225Y007475D01*
X007225Y007975D01*
X007475Y008225D01*
X007975Y008225D01*
X008225Y007975D01*
X008225Y007475D01*
X007975Y007225D01*
X008225Y006975D01*
X008225Y006475D01*
X007975Y006225D01*
X007475Y006225D01*
X007975Y006225D02*
X008225Y005975D01*
X008225Y005475D01*
X007975Y005225D01*
X008225Y004975D01*
X008225Y004475D01*
X007975Y004225D01*
X008225Y003975D01*
X008225Y003475D01*
X007975Y003225D01*
X007475Y003225D01*
X007225Y003475D01*
X007475Y004225D02*
X007975Y004225D01*
X007975Y005225D02*
X007475Y005225D01*
X007475Y007225D02*
X007975Y007225D01*
M02*
